<svg xmlns="http://www.w3.org/2000/svg" width="60" height="60" viewBox="0 0 60 60"><path class="currentColor" vector-effect="non-scaling-stroke" d="M36.6 47.6c0-8.9-6.5-16.2-15.6-16.2S5.4 38.7 5.4 47.6h31.2zM28.4 19.6c0 4-3.3 7.3-7.3 7.3s-7.3-3.3-7.3-7.3 3.3-7.3 7.3-7.3 7.3 3.3 7.3 7.3z"/><path class="currentColor" vector-effect="non-scaling-stroke" d="M36.6 47.6h17c0-6.8-5-12.4-11.9-12.4-2.7 0-5.1.9-7.1 2.3M47.4 25.3c0 3.1-2.5 5.6-5.6 5.6-3.1 0-5.6-2.5-5.6-5.6 0-3.1 2.5-5.6 5.6-5.6 3 0 5.6 2.5 5.6 5.6z"/></svg>