<svg xmlns="http://www.w3.org/2000/svg" width="60" height="60" viewBox="0 0 60 60"><path class="currentColor" vector-effect="non-scaling-stroke" d="M21.5 39.7c0 3.3-2.7 5.9-5.9 5.9-3.3 0-5.9-2.7-5.9-5.9s2.7-5.9 5.9-5.9c3.3 0 5.9 2.6 5.9 5.9zM49.5 39.7c0 3.3-2.7 5.9-5.9 5.9-3.3 0-5.9-2.7-5.9-5.9s2.7-5.9 5.9-5.9 5.9 2.6 5.9 5.9zM37.6 39.7H22.2"/><path class="currentColor" vector-effect="non-scaling-stroke" d="M8.9 39.7H4c-1.4 0-2.5-1.1-2.5-2.5v-7.8c0-2.1 1.5-3.9 3.6-4.3L16.4 23c1.1-.2 2.1-.8 2.8-1.7l6-6c.7-.9 1.8-1.4 2.9-1.4H41c1 0 1.9.5 2.4 1.2l6.3 6.9c.5.6 1.2 1 2 1h1.7c2.8 0 5 2.3 5 5v9.2c0 1.4-1.1 2.5-2.5 2.5h-5.8"/></svg>