<svg xmlns="http://www.w3.org/2000/svg" width="60" height="60" viewBox="0 0 60 60"><path class="currentColor" vector-effect="non-scaling-stroke" d="M35.6 47.6c0-8.9-6.5-16.2-15.6-16.2S4.4 38.7 4.4 47.6h31.2zM27.4 19.6c0 4-3.3 7.3-7.3 7.3s-7.3-3.3-7.3-7.3 3.3-7.3 7.3-7.3 7.3 3.3 7.3 7.3z"/><path class="currentColor" vector-effect="non-scaling-stroke" d="M35.6 47.6h19.6c0-8.9-6.5-16.2-15.6-16.2-3.6 0-6.7 1.1-9.2 3M46.9 19.6c0 4-3.3 7.3-7.3 7.3s-7.3-3.3-7.3-7.3 3.3-7.3 7.3-7.3c4.1 0 7.3 3.3 7.3 7.3z"/></svg>