<svg xmlns="http://www.w3.org/2000/svg" width="60" height="60" viewBox="0 0 60 60"><path class="currentColor" vector-effect="non-scaling-stroke" d="M19.5 44.7c0 3.1-2.5 5.7-5.7 5.7-3.1 0-5.7-2.6-5.7-5.7s2.5-5.7 5.7-5.7c3.1 0 5.7 2.6 5.7 5.7zM50.5 44.7c0 3.1-2.5 5.7-5.7 5.7-3.1 0-5.7-2.6-5.7-5.7s2.6-5.7 5.7-5.7 5.7 2.6 5.7 5.7zM39.1 44.7H19.5"/><path class="currentColor" vector-effect="non-scaling-stroke" d="M8 44.7H3.9c-1.5 0-2.8-1.2-2.8-2.8v-8.1c0-2.2 1.6-4.2 3.8-4.5l10-2.3c1.2-.2 2.2-.8 2.9-1.8l4.4-7.4c.7-1 1.9-1.5 3.1-1.5h30.4c1.5 0 2.8 1.2 2.8 2.8v22.5c0 1.7-1.4 3.2-3.2 3.2h-4.8M42.7 22.9v9.3M38.1 27.6h9.3M40.1 15.5v-2.8c0-1.5 1.3-2.8 2.8-2.8 1.5 0 2.8 1.3 2.8 2.8v2.8"/></svg>