<svg xmlns="http://www.w3.org/2000/svg" width="60" height="60" viewBox="0 0 60 60"><path class="currentColor" vector-effect="non-scaling-stroke" d="M29.9 15.4c-6.9 0-11.2 2.3-15.2 6.1M17.2 30.7c0-1.8 1.6-3.3 3.6-3.3s3.6 1.5 3.6 3.3"/><path class="currentColor" vector-effect="non-scaling-stroke" d="M41.6 18.1L52.2 7.6s.1 28.6.1 29.7c0 4.1-4.6 15.8-22.4 15.8h.1c-17.8 0-22.4-11.8-22.4-15.8 0-1.1.1-29.7.1-29.7l10.6 10.5M30 15.4c6.9 0 11.2 2.3 15.2 6.1"/><path class="currentColor" vector-effect="non-scaling-stroke" d="M42.6 30.7c0-1.8-1.6-3.3-3.6-3.3s-3.6 1.5-3.6 3.3M39.5 41c.2-.2.4-.6.4-.8M19.9 40.2c.3 1.9 2.5 3.3 5.1 3.3 2.8 0 8.5-1.9 8.5-5.5 0-1.7-1.5-3.1-3.4-3.1h-.3c-1.9 0-3.4 1.4-3.4 3.1 0 3.5 5.7 5.5 8.5 5.5.5 0 1.3-.1 2-.3"/></svg>