<svg xmlns="http://www.w3.org/2000/svg" width="60" height="60" viewBox="0 0 60 60"><path class="currentColor" vector-effect="non-scaling-stroke" d="M28.6 8.5h2.8c10.1.2 18.3 8.3 18.3 18.2 0 9.9-8 17.9-18.1 18.2h-3c-10.3 0-18.7-8.2-18.7-18.2h18.7"/><path class="currentColor" vector-effect="non-scaling-stroke" d="M28.6 8.5v18l20.1-18M23.7 47.6c0 2.6-2.2 4.8-4.9 4.8s-4.9-2.1-4.9-4.8 2.2-4.8 4.9-4.8 4.9 2.2 4.9 4.8zM45.4 47.6c0 2.6-2.2 4.8-4.9 4.8s-4.9-2.1-4.9-4.8 2.2-4.8 4.9-4.8 4.9 2.2 4.9 4.8z"/></svg>