<svg xmlns="http://www.w3.org/2000/svg" width="60" height="60" viewBox="0 0 60 60"><path class="currentColor" vector-effect="non-scaling-stroke" d="M51.6 30.2c0 11.9-9.6 21.5-21.5 21.5S8.6 42.1 8.6 30.2 18.2 8.7 30.1 8.7s21.5 9.7 21.5 21.5z"/><path class="currentColor" vector-effect="non-scaling-stroke" d="M27.5 39.6c-1.9 1.9-5.1 1.9-7 0-1.9-1.9-1.9-5.1 0-7 1.9-1.9 5.1-1.9 7 0 1.9 2 1.9 5.1 0 7zM27.9 32.2l6.7-6.7 5.2-5.2M37.3 29.3l-2.8-2.8M40.4 26.2l-2.8-2.8M34.5 33.7l11.1 11.1M15.5 14.7l11.4 11.4"/></svg>