<svg xmlns="http://www.w3.org/2000/svg" width="60" height="60" viewBox="0 0 60 60"><path class="currentColor" vector-effect="non-scaling-stroke" d="M53 30.2c0 11.9-9.6 21.5-21.5 21.5S10 42.1 10 30.2 19.6 8.7 31.5 8.7 53 18.4 53 30.2z"/><path class="currentColor" vector-effect="non-scaling-stroke" d="M46.9 14.9c6.5-.6 10.9.1 11.4 2 .6 2-4 5.7-10.6 8.7M10.4 26c-6 3-9.6 5.9-9 7.9.6 2.2 8.1 3.2 18.3 1.2M28.3 29.9l-3.2 1.3c-1.1.4-5.1 2.4-4.7 3.6.4 1.2 4.9.5 6 .1l3.3-.8v.4l-.9 5.5c.1.7.7 1.3 1.4 1.2l1-.2c.5-.1 1-.9 1.1-1.4l3.5-6.3.2-.8 2.8-1.4c1.1-.4 3.8-2.3 3.4-3.5-.4-1.2-3.7-1.2-4.8-.8l-3.1.7-.7-.5-5.3-3.5c-.4-.4-1.2-.7-1.7-.5l-.9.5c-.6.3-.8 1.1-.4 1.8l2.7 4.4.3.2z"/></svg>