<svg xmlns="http://www.w3.org/2000/svg" width="60" height="60" viewBox="0 0 60 60"><path class="currentColor" vector-effect="non-scaling-stroke" d="M7.1 22.8h18.4l22.4 18.7M43.2 24.4c-3.3 0-7-2.6-7-5.9s3.7-5.9 7-5.9v11.8z"/><path class="currentColor" vector-effect="non-scaling-stroke" d="M27.4 9.4h4.4c2.4 0 4.4 2 4.4 4.4v8.9c0 8.3-1 18.5-16.2 18.6l-7.8.3M57.3 41.5c0 5.2-4.2 9.4-9.4 9.4s-9.4-4.2-9.4-9.4 4.2-9.4 9.4-9.4 9.4 4.2 9.4 9.4z"/><path class="currentColor" vector-effect="non-scaling-stroke" d="M21.7 41.5c0 5.2-4.2 9.4-9.4 9.4s-9.4-4.2-9.4-9.4 4.2-9.4 9.4-9.4 9.4 4.2 9.4 9.4z"/></svg>