<svg class="currentColor" xmlns="http://www.w3.org/2000/svg" width="60" height="60" viewBox="0 0 60 60"><path d="M53.7 15.3c-1.3 2-3 3.6-4.9 5v1.3c0 2.6-.4 5.2-1.1 7.8s-1.9 5.1-3.5 7.5c-1.6 2.4-3.4 4.5-5.5 6.3-2.1 1.8-4.7 3.3-7.7 4.4s-6.3 1.6-9.7 1.6c-5.4 0-10.4-1.5-14.9-4.4.6.1 1.4.2 2.3.2 4.5 0 8.5-1.4 12-4.1-2.1 0-4-.7-5.6-1.9-1.7-1.3-2.8-2.8-3.4-4.8.7.1 1.3.2 1.8.2.9 0 1.7-.1 2.6-.3-2.2-.5-4.1-1.6-5.6-3.3S8.3 27 8.3 24.6v-.1c1.4.8 2.8 1.2 4.4 1.2-1.3-.9-2.4-2-3.2-3.5-.8-1.4-1.2-3-1.2-4.6 0-1.8.4-3.4 1.3-4.9 2.4 3 5.4 5.4 8.8 7.2s7.2 2.8 11.2 3c-.2-.8-.2-1.5-.2-2.2 0-2.7.9-5 2.8-6.9 1.9-1.9 4.2-2.8 6.9-2.8 2.8 0 5.2 1 7.1 3.1 2.2-.4 4.2-1.2 6.2-2.3-.7 2.3-2.2 4.1-4.3 5.3 1.8-.5 3.7-1 5.6-1.8z"/></svg>