<svg width="60" height="36" viewBox="0 0 60 36" xmlns="http://www.w3.org/2000/svg"><g fill="#5951A1"><path d="M57.246 34.135L37.475 2.772 23.815 24.44c-.387.614-1.343.614-1.73 0l-6.663-10.569L2.748 33.977l54.498.158zM36.61.46c.387-.613 1.343-.613 1.73 0L59.86 34.6c.392.622-.092 1.402-.868 1.4L1 35.832c-.772-.003-1.251-.781-.861-1.4L14.557 11.56c.387-.614 1.343-.614 1.73 0l6.663 10.569L36.61.46z"/><path d="M42.446 18.197l-1.396-.03.711-.653.685.683zm-8.136 1.531a1.005 1.005 0 0 1-1.43-.056l-3.6-3.9a1.07 1.07 0 0 1 .04-1.484 1.005 1.005 0 0 1 1.446.04l2.912 3.155 3.457-3.211a1.004 1.004 0 0 1 1.4.025l3.226 3.217 3.533-3.246a1.005 1.005 0 0 1 1.445.082 1.07 1.07 0 0 1-.08 1.482l-4.244 3.9c-.4.368-1.01.355-1.395-.029l-3.223-3.214-3.487 3.24z"/></g></svg>